<?xml version="1.0" standalone="no"?>
<!DOCTYPE svg PUBLIC "-//W3C//DTD SVG 20010904//EN" "http://www.w3.org/TR/2001/REC-SVG-20010904/DTD/svg10.dtd">
<svg version="1.0" xmlns="http://www.w3.org/2000/svg" width="1024.000000pt" height="1024.000000pt"
  viewBox="0 0 1024.000000 1024.000000" preserveAspectRatio="xMidYMid meet">

  <style>
    :root {
      --svg-fill-color: #000000;
    }

    @media (prefers-color-scheme: dark) {
      :root {
        --svg-fill-color: #ffffff;
      }
    }
  </style>


  <g transform="translate(0.000000,1024.000000) scale(0.100000,-0.100000)" fill="var(--svg-fill-color)" stroke="none">
    <path d="M3741 8785 c-185 -33 -380 -119 -520 -232 -161 -128 -310 -314 -371
-462 -33 -81 -75 -242 -90 -346 -24 -171 -9 -413 42 -669 16 -82 22 -148 23
-253 0 -164 -7 -154 99 -127 149 37 347 182 440 323 25 38 46 71 46 75 0 3
-20 28 -45 56 -52 58 -76 103 -99 179 -30 103 -13 278 36 360 51 86 149 167
233 194 143 45 231 32 418 -63 190 -96 214 -95 323 23 85 90 109 157 101 278
-4 49 -5 89 -3 89 2 0 70 -33 151 -74 413 -209 804 -232 997 -58 59 53 135
174 160 255 26 85 21 192 -12 282 -35 95 -38 95 -106 27 -177 -176 -398 -179
-874 -12 -423 148 -475 161 -705 166 -110 2 -186 -1 -244 -11z" />
    <path d="M4530 7908 c-17 -60 -55 -122 -118 -197 l-54 -65 28 -14 c16 -8 80
-33 144 -54 63 -22 122 -44 130 -48 10 -6 29 5 63 37 70 65 124 86 227 87 67
1 95 -4 131 -20 58 -27 139 -108 176 -176 15 -29 33 -52 38 -51 16 4 18 98 5
218 -6 61 -13 119 -15 130 -4 19 -12 20 -127 20 -113 1 -204 14 -303 44 -70
21 -233 85 -271 107 l-41 24 -13 -42z" />
    <path d="M3584 7681 c-75 -34 -114 -109 -114 -217 0 -132 68 -237 181 -280
l54 -20 -2 -48 c-2 -61 -21 -82 -87 -96 -51 -10 -51 -11 -74 -70 -27 -68 -84
-136 -178 -211 -78 -62 -200 -133 -266 -155 -50 -16 -85 -52 -75 -78 4 -9 30
-16 74 -20 93 -10 282 -52 368 -83 154 -56 271 -134 446 -301 60 -57 105 -92
113 -89 8 3 40 42 72 86 66 93 50 91 194 26 145 -66 191 -78 269 -73 90 7 169
44 227 105 43 47 134 218 201 378 l29 70 109 12 c138 16 189 40 223 103 28 54
26 84 -19 245 -35 121 -55 169 -69 160 -5 -3 -28 -38 -51 -77 -54 -93 -111
-153 -174 -186 -43 -23 -62 -27 -140 -27 -75 0 -97 4 -134 23 -62 33 -139 108
-166 162 -45 88 -50 166 -19 303 5 20 3 27 -8 27 -63 0 -593 214 -686 277
-105 71 -216 91 -298 54z" />
    <path d="M4894 7431 c-50 -23 -101 -83 -115 -136 -17 -62 -7 -176 20 -213 29
-41 90 -59 135 -40 81 33 138 127 152 252 15 123 -77 189 -192 137z" />
    <path d="M2961 6266 c-40 -8 -97 -22 -125 -31 -52 -17 -194 -84 -201 -95 -2
-4 29 -2 68 3 226 28 554 -90 700 -252 99 -110 174 -283 202 -466 41 -268 87
-534 101 -585 26 -91 40 -110 78 -110 36 0 205 42 259 65 18 7 61 18 97 24
120 21 110 13 110 89 0 186 -56 407 -150 591 -172 337 -376 553 -643 680 -185
88 -343 116 -496 87z" />
    <path d="M2522 6095 c-81 -30 -278 -162 -336 -225 -121 -136 -219 -308 -256
-455 -45 -173 -46 -206 -45 -1500 l0 -1230 23 -65 c72 -199 157 -334 300 -472
188 -181 430 -311 687 -369 90 -21 4277 -21 4380 0 408 81 737 329 910 686 74
153 134 398 121 489 -8 51 -18 56 -69 29 -41 -22 -191 -23 -402 -5 -184 16
-2306 9 -2907 -10 -524 -16 -735 -1 -862 62 -43 22 -51 23 -178 14 -73 -5
-200 -8 -283 -8 -132 1 -161 5 -238 28 -270 81 -594 260 -727 402 -145 155
-211 297 -306 659 -41 154 -48 194 -48 275 0 108 13 147 58 169 36 17 71 6 98
-30 21 -28 67 -172 124 -392 41 -157 65 -221 137 -362 41 -80 67 -116 132
-181 125 -126 212 -181 375 -241 316 -115 472 -98 875 92 61 28 164 76 230
105 66 30 147 69 180 88 33 18 110 57 171 87 61 29 185 93 275 143 229 125
311 165 413 201 125 44 298 74 436 75 99 0 122 -3 163 -21 70 -33 117 -73 182
-158 87 -113 163 -141 256 -92 63 34 89 83 89 173 0 256 -237 573 -532 708
-124 57 -158 61 -513 59 -339 -2 -499 -12 -593 -39 -31 -8 -145 -44 -252 -79
-732 -238 -778 -249 -871 -208 -59 26 -106 67 -129 113 -37 73 -80 223 -95
338 -31 225 -77 486 -101 571 -49 171 -125 293 -251 403 -89 79 -194 123 -375
158 -84 17 -160 32 -169 34 -8 2 -43 -7 -77 -19z" />
    <path d="M8115 5826 c-163 -52 -344 -122 -386 -152 -61 -42 -86 -92 -140 -282
-28 -97 -73 -251 -101 -342 -28 -91 -57 -187 -65 -215 -8 -27 -39 -126 -68
-220 -139 -444 -190 -633 -181 -678 10 -51 62 -104 134 -138 208 -97 291 -145
275 -159 -5 -4 -41 -13 -81 -20 -61 -11 -97 -11 -215 0 -78 8 -176 13 -217 13
-41 0 -334 -4 -650 -8 -703 -9 -937 -8 -1103 6 -70 6 -145 8 -167 4 -71 -12
-170 -121 -170 -188 0 -70 83 -182 165 -222 l56 -28 1143 2 c629 1 1170 6
1203 11 69 9 129 37 192 89 53 43 101 115 101 152 0 69 9 85 69 112 47 22 62
35 83 74 31 56 115 309 157 473 16 63 46 169 66 235 43 141 140 472 165 565
22 83 70 236 128 415 41 125 46 149 46 230 -1 141 -45 220 -154 276 -73 38
-152 36 -285 -5z m123 -284 c-28 -63 -117 -353 -173 -562 -20 -74 -52 -187
-70 -250 -19 -63 -62 -216 -95 -340 -138 -508 -152 -548 -175 -510 -10 16 -81
49 -153 72 -88 27 -105 42 -97 88 10 52 97 341 220 730 18 58 54 175 80 260
26 85 63 204 81 264 19 60 34 115 34 122 0 13 72 43 235 98 110 37 118 39 113
28z" />
  </g>
</svg>